<svg xmlns="http://www.w3.org/2000/svg" xmlns:xlink="http://www.w3.org/1999/xlink" width="175" zoomAndPan="magnify" viewBox="0 0 131.25 41.25" height="55" preserveAspectRatio="xMidYMid meet" version="1.0"><defs><g/><clipPath id="058acce9cf"><path d="M 4.867188 7.121094 L 125.660156 7.121094 L 125.660156 33.515625 L 4.867188 33.515625 Z M 4.867188 7.121094 " clip-rule="nonzero"/></clipPath><clipPath id="72d5cd2afe"><path d="M 7.074219 7.121094 L 123.4375 7.121094 C 124.65625 7.121094 125.648438 8.109375 125.648438 9.332031 L 125.648438 31.175781 C 125.648438 32.398438 124.65625 33.386719 123.4375 33.386719 L 7.074219 33.386719 C 5.855469 33.386719 4.867188 32.398438 4.867188 31.175781 L 4.867188 9.332031 C 4.867188 8.109375 5.855469 7.121094 7.074219 7.121094 Z M 7.074219 7.121094 " clip-rule="nonzero"/></clipPath></defs><g fill="#000000" fill-opacity="1"><g transform="translate(6.943883, 28.457597)"><g><path d="M 2.078125 0 L 2.078125 -15.96875 L 8.890625 -15.96875 C 9.867188 -15.96875 10.695312 -15.8125 11.375 -15.5 C 12.0625 -15.1875 12.578125 -14.742188 12.921875 -14.171875 C 13.273438 -13.597656 13.453125 -12.925781 13.453125 -12.15625 C 13.453125 -11.445312 13.28125 -10.820312 12.9375 -10.28125 C 12.59375 -9.738281 12.101562 -9.304688 11.46875 -8.984375 L 11.46875 -8.75 C 12.46875 -8.488281 13.238281 -8.007812 13.78125 -7.3125 C 14.332031 -6.625 14.609375 -5.78125 14.609375 -4.78125 C 14.609375 -3.25 14.144531 -2.066406 13.21875 -1.234375 C 12.300781 -0.410156 10.9375 0 9.125 0 Z M 8.234375 -9.59375 C 9.703125 -9.59375 10.4375 -10.253906 10.4375 -11.578125 C 10.4375 -12.253906 10.253906 -12.757812 9.890625 -13.09375 C 9.523438 -13.425781 8.972656 -13.59375 8.234375 -13.59375 L 5.234375 -13.59375 L 5.234375 -9.59375 Z M 8.8125 -2.5 C 10.550781 -2.5 11.421875 -3.289062 11.421875 -4.875 C 11.421875 -6.457031 10.550781 -7.25 8.8125 -7.25 L 5.234375 -7.25 L 5.234375 -2.5 Z M 8.8125 -2.5 "/></g></g></g><g fill="#000000" fill-opacity="1"><g transform="translate(22.550588, 28.457597)"><g><path d="M 5.234375 0 L 2.078125 0 L 2.078125 -15.96875 L 5.234375 -15.96875 Z M 5.234375 0 "/></g></g></g><g fill="#000000" fill-opacity="1"><g transform="translate(29.862821, 28.457597)"><g><path d="M 2.078125 0 L 2.078125 -15.96875 L 5.234375 -15.96875 L 5.234375 -9.4375 L 5.578125 -9.4375 L 10.90625 -15.96875 L 14.140625 -15.96875 L 14.140625 -15.6875 L 8.265625 -8.421875 L 14.75 -0.265625 L 14.75 0 L 11.1875 0 L 5.578125 -6.890625 L 5.234375 -6.890625 L 5.234375 0 Z M 2.078125 0 "/></g></g></g><g fill="#000000" fill-opacity="1"><g transform="translate(44.607338, 28.457597)"><g><path d="M 5.234375 -7.015625 L 5.234375 -2.640625 L 12.84375 -2.640625 L 12.84375 0 L 2.078125 0 L 2.078125 -15.96875 L 12.671875 -15.96875 L 12.671875 -13.3125 L 5.234375 -13.3125 L 5.234375 -9.578125 L 11.734375 -9.578125 L 11.734375 -7.015625 Z M 5.234375 -7.015625 "/></g></g></g><g fill="#000000" fill-opacity="1"><g transform="translate(58.32596, 28.457597)"><g><path d="M 12.375 -9.953125 L 12.375 -15.96875 L 15.53125 -15.96875 L 15.53125 0 L 12.375 0 L 12.375 -7.265625 L 5.234375 -7.265625 L 5.234375 0 L 2.078125 0 L 2.078125 -15.96875 L 5.234375 -15.96875 L 5.234375 -9.953125 Z M 12.375 -9.953125 "/></g></g></g><g fill="#000000" fill-opacity="1"><g transform="translate(75.929887, 28.457597)"><g><path d="M 8.46875 0.234375 C 6.257812 0.234375 4.625 -0.285156 3.5625 -1.328125 C 2.5 -2.378906 1.96875 -3.929688 1.96875 -5.984375 L 1.96875 -15.96875 L 5.0625 -15.96875 L 5.0625 -6 C 5.0625 -4.84375 5.34375 -3.972656 5.90625 -3.390625 C 6.46875 -2.804688 7.320312 -2.515625 8.46875 -2.515625 C 10.726562 -2.515625 11.859375 -3.675781 11.859375 -6 L 11.859375 -15.96875 L 14.953125 -15.96875 L 14.953125 -5.984375 C 14.953125 -3.929688 14.421875 -2.378906 13.359375 -1.328125 C 12.296875 -0.285156 10.664062 0.234375 8.46875 0.234375 Z M 8.46875 0.234375 "/></g></g></g><g fill="#000000" fill-opacity="1"><g transform="translate(92.846246, 28.457597)"><g><path d="M 5.125 0 L 2.078125 0 L 2.078125 -15.96875 L 5.6875 -15.96875 L 12.09375 -5.671875 L 12.375 -5.71875 L 12.375 -15.96875 L 15.421875 -15.96875 L 15.421875 0 L 12.1875 0 L 5.40625 -10.984375 L 5.125 -10.9375 Z M 5.125 0 "/></g></g></g><g fill="#000000" fill-opacity="1"><g transform="translate(110.341036, 28.457597)"><g><path d="M 12.796875 -15.96875 L 12.796875 -13.3125 L 8.1875 -13.3125 L 8.1875 0 L 5.046875 0 L 5.046875 -13.3125 L 0.4375 -13.3125 L 0.4375 -15.96875 Z M 12.796875 -15.96875 "/></g></g></g><g clip-path="url(#058acce9cf)"><g clip-path="url(#72d5cd2afe)"><path stroke-linecap="butt" transform="matrix(0.736607, 0, 0, 0.736607, 4.866361, 7.121883)" fill="none" stroke-linejoin="miter" d="M 2.997334 -0.00107097 L 160.969312 -0.00107097 C 162.623858 -0.00107097 163.970827 1.340596 163.970827 3.000444 L 163.970827 32.654991 C 163.970827 34.31484 162.623858 35.656507 160.969312 35.656507 L 2.997334 35.656507 C 1.342788 35.656507 0.00112158 34.31484 0.00112158 32.654991 L 0.00112158 3.000444 C 0.00112158 1.340596 1.342788 -0.00107097 2.997334 -0.00107097 Z M 2.997334 -0.00107097 " stroke="#000000" stroke-width="4" stroke-opacity="1" stroke-miterlimit="4"/></g></g></svg>