<svg xmlns="http://www.w3.org/2000/svg" xmlns:xlink="http://www.w3.org/1999/xlink" width="175" zoomAndPan="magnify" viewBox="0 0 131.25 41.25" height="55" preserveAspectRatio="xMidYMid meet" version="1.0"><defs><g/><clipPath id="d102e5c35a"><path d="M 3.8125 5.585938 L 126.824219 5.585938 L 126.824219 35 L 3.8125 35 Z M 3.8125 5.585938 " clip-rule="nonzero"/></clipPath><clipPath id="ef02c0d2d4"><path d="M 18.480469 5.585938 L 112.027344 5.585938 C 115.917969 5.585938 119.648438 7.132812 122.398438 9.882812 C 125.148438 12.632812 126.695312 16.363281 126.695312 20.253906 C 126.695312 24.144531 125.148438 27.875 122.398438 30.628906 C 119.648438 33.378906 115.917969 34.925781 112.027344 34.925781 L 18.480469 34.925781 C 14.589844 34.925781 10.859375 33.378906 8.109375 30.628906 C 5.359375 27.875 3.8125 24.144531 3.8125 20.253906 C 3.8125 16.363281 5.359375 12.632812 8.109375 9.882812 C 10.859375 7.132812 14.589844 5.585938 18.480469 5.585938 Z M 18.480469 5.585938 " clip-rule="nonzero"/></clipPath></defs><g fill="#737373" fill-opacity="1"><g transform="translate(7.602801, 28.327805)"><g><path d="M 2.046875 0 L 2.046875 -15.765625 L 8.78125 -15.765625 C 9.75 -15.765625 10.566406 -15.613281 11.234375 -15.3125 C 11.910156 -15.007812 12.421875 -14.570312 12.765625 -14 C 13.117188 -13.4375 13.296875 -12.769531 13.296875 -12 C 13.296875 -11.300781 13.125 -10.6875 12.78125 -10.15625 C 12.445312 -9.625 11.960938 -9.195312 11.328125 -8.875 L 11.328125 -8.65625 C 12.316406 -8.394531 13.082031 -7.921875 13.625 -7.234375 C 14.164062 -6.554688 14.4375 -5.71875 14.4375 -4.71875 C 14.4375 -3.207031 13.976562 -2.039062 13.0625 -1.21875 C 12.15625 -0.40625 10.804688 0 9.015625 0 Z M 8.140625 -9.484375 C 9.585938 -9.484375 10.3125 -10.140625 10.3125 -11.453125 C 10.3125 -12.117188 10.128906 -12.613281 9.765625 -12.9375 C 9.410156 -13.269531 8.867188 -13.4375 8.140625 -13.4375 L 5.171875 -13.4375 L 5.171875 -9.484375 Z M 8.703125 -2.46875 C 10.421875 -2.46875 11.28125 -3.25 11.28125 -4.8125 C 11.28125 -6.375 10.421875 -7.15625 8.703125 -7.15625 L 5.171875 -7.15625 L 5.171875 -2.46875 Z M 8.703125 -2.46875 "/></g></g><g transform="translate(23.032706, 28.327805)"><g><path d="M 5.171875 0 L 2.046875 0 L 2.046875 -15.765625 L 5.171875 -15.765625 Z M 5.171875 0 "/></g></g><g transform="translate(30.262102, 28.327805)"><g><path d="M 2.046875 0 L 2.046875 -15.765625 L 5.171875 -15.765625 L 5.171875 -9.328125 L 5.515625 -9.328125 L 10.78125 -15.765625 L 13.96875 -15.765625 L 13.96875 -15.5 L 8.171875 -8.328125 L 14.578125 -0.265625 L 14.578125 0 L 11.046875 0 L 5.515625 -6.8125 L 5.171875 -6.8125 L 5.171875 0 Z M 2.046875 0 "/></g></g><g transform="translate(44.839585, 28.327805)"><g><path d="M 5.171875 -6.921875 L 5.171875 -2.609375 L 12.703125 -2.609375 L 12.703125 0 L 2.046875 0 L 2.046875 -15.765625 L 12.53125 -15.765625 L 12.53125 -13.15625 L 5.171875 -13.15625 L 5.171875 -9.46875 L 11.59375 -9.46875 L 11.59375 -6.921875 Z M 5.171875 -6.921875 "/></g></g><g transform="translate(58.402795, 28.327805)"><g><path d="M 12.234375 -9.84375 L 12.234375 -15.765625 L 15.34375 -15.765625 L 15.34375 0 L 12.234375 0 L 12.234375 -7.1875 L 5.171875 -7.1875 L 5.171875 0 L 2.046875 0 L 2.046875 -15.765625 L 5.171875 -15.765625 L 5.171875 -9.84375 Z M 12.234375 -9.84375 "/></g></g><g transform="translate(75.807296, 28.327805)"><g><path d="M 8.359375 0.21875 C 6.191406 0.21875 4.582031 -0.296875 3.53125 -1.328125 C 2.476562 -2.359375 1.953125 -3.882812 1.953125 -5.90625 L 1.953125 -15.765625 L 5 -15.765625 L 5 -5.9375 C 5 -4.78125 5.273438 -3.914062 5.828125 -3.34375 C 6.390625 -2.769531 7.234375 -2.484375 8.359375 -2.484375 C 10.597656 -2.484375 11.71875 -3.632812 11.71875 -5.9375 L 11.71875 -15.765625 L 14.765625 -15.765625 L 14.765625 -5.90625 C 14.765625 -3.882812 14.238281 -2.359375 13.1875 -1.328125 C 12.144531 -0.296875 10.535156 0.21875 8.359375 0.21875 Z M 8.359375 0.21875 "/></g></g><g transform="translate(92.532018, 28.327805)"><g><path d="M 5.078125 0 L 2.046875 0 L 2.046875 -15.765625 L 5.625 -15.765625 L 11.953125 -5.609375 L 12.234375 -5.65625 L 12.234375 -15.765625 L 15.234375 -15.765625 L 15.234375 0 L 12.046875 0 L 5.34375 -10.859375 L 5.078125 -10.8125 Z M 5.078125 0 "/></g></g><g transform="translate(109.828617, 28.327805)"><g><path d="M 12.640625 -15.765625 L 12.640625 -13.15625 L 8.09375 -13.15625 L 8.09375 0 L 4.984375 0 L 4.984375 -13.15625 L 0.4375 -13.15625 L 0.4375 -15.765625 Z M 12.640625 -15.765625 "/></g></g></g><g clip-path="url(#d102e5c35a)"><g clip-path="url(#ef02c0d2d4)"><path stroke-linecap="butt" transform="matrix(0.736607, 0, 0, 0.736607, 3.812761, 5.586611)" fill="none" stroke-linejoin="miter" d="M 19.912526 -0.000914312 L 146.909503 -0.000914312 C 152.191321 -0.000914312 157.255715 2.099086 160.989049 5.832419 C 164.722382 9.565753 166.822382 14.630147 166.822382 19.911966 C 166.822382 25.193784 164.722382 30.258178 160.989049 33.996815 C 157.255715 37.730148 152.191321 39.830148 146.909503 39.830148 L 19.912526 39.830148 C 14.630708 39.830148 9.566313 37.730148 5.83298 33.996815 C 2.099646 30.258178 -0.00035377 25.193784 -0.00035377 19.911966 C -0.00035377 14.630147 2.099646 9.565753 5.83298 5.832419 C 9.566313 2.099086 14.630708 -0.000914312 19.912526 -0.000914312 Z M 19.912526 -0.000914312 " stroke="#737373" stroke-width="4" stroke-opacity="1" stroke-miterlimit="4"/></g></g></svg>