<?xml version="1.0" encoding="UTF-8"?>
<svg version="1.1" xmlns="http://www.w3.org/2000/svg" width="1080" height="261">
<path d="M0 0 C1.89215744 0.02092964 1.89215744 0.02092964 3.82254028 0.0422821 C4.86427147 0.05187454 4.86427147 0.05187454 5.92704773 0.06166077 C8.23882241 0.08456192 10.55041676 0.11515903 12.86209106 0.14653015 C14.47098586 0.1657648 16.0798828 0.18482053 17.68878174 0.20370483 C21.07343107 0.24479007 24.45799737 0.29000437 27.84255981 0.33769226 C32.15387051 0.3978421 36.46520998 0.4449887 40.77671623 0.48852253 C44.1073757 0.52414261 47.43788252 0.5683513 50.76840591 0.61487389 C52.35577926 0.6357577 53.9431943 0.65370629 55.53063583 0.6685276 C71.12491759 0.82108831 85.53156747 1.76265297 97.42068481 13.0488739 C104.00541357 20.69942349 105.16067295 29.18090908 104.66287231 38.92778015 C103.77576598 48.71723316 99.55084776 55.8273331 92.18240356 62.0957489 C91.37802856 62.9001239 90.57365356 63.7044989 89.74490356 64.5332489 C89.22927856 65.0488739 88.71365356 65.5644989 88.18240356 66.0957489 C89.17240356 66.1885614 89.17240356 66.1885614 90.18240356 66.2832489 C97.87836536 68.36757189 103.76233821 73.58314628 108.18240356 80.0957489 C113.18587331 89.15808054 114.05142442 100.34742583 111.29959106 110.2832489 C107.45855819 119.44067826 101.2120964 126.81772184 92.18240356 131.0957489 C83.64846532 134.42387238 75.84016667 136.18693032 66.66409302 136.31694031 C65.93651794 136.3284462 65.20894287 136.33995209 64.45932007 136.35180664 C62.07148327 136.38827863 59.6836201 136.41805375 57.29568481 136.4473114 C55.62992508 136.47044658 53.96416887 136.49383706 52.29841614 136.51747131 C48.81601156 136.56579702 45.33358371 136.61074932 41.85110474 136.65336609 C37.3853856 136.70832847 32.91984397 136.77215586 28.45428181 136.83854103 C25.01858514 136.8885708 21.5828375 136.9337101 18.14705467 136.97738266 C16.49998037 136.99895155 14.85292597 137.02209937 13.20589638 137.0468483 C10.90813825 137.08068615 8.61039473 137.10789269 6.31253052 137.13334656 C4.3511187 137.15880051 4.3511187 137.15880051 2.3500824 137.18476868 C-0.81759644 137.0957489 -0.81759644 137.0957489 -3.81759644 136.0957489 C-3.84092482 118.51120773 -3.85857531 100.92667136 -3.86940861 83.34211826 C-3.8745717 75.17787726 -3.88161463 67.01364585 -3.89303589 58.84941101 C-3.90298234 51.73603606 -3.90944977 44.62266806 -3.91168493 37.50928634 C-3.9129921 33.74049167 -3.91607837 29.97171687 -3.92332649 26.20292854 C-3.9313396 22.00256074 -3.9315876 17.80222783 -3.93112183 13.60185242 C-3.9347171 12.34309799 -3.93831238 11.08434357 -3.9420166 9.78744507 C-3.94064194 8.65015961 -3.93926727 7.51287415 -3.93785095 6.34112549 C-3.93877275 5.34651086 -3.93969454 4.35189623 -3.94064426 3.32714176 C-3.75545893 -0.03107459 -3.40795985 0.11581091 0 0 Z M20.18240356 21.0957489 C20.18240356 33.3057489 20.18240356 45.5157489 20.18240356 58.0957489 C25.9995081 58.16490866 31.81516549 58.22455527 37.63235474 58.26054382 C39.60799006 58.27555846 41.58359246 58.29597641 43.55911255 58.32206726 C46.41149052 58.35877462 49.26342486 58.37554883 52.11599731 58.38871765 C52.98824448 58.40420151 53.86049164 58.41968536 54.75917053 58.43563843 C61.98680777 58.43758766 68.77490858 57.21975966 74.61990356 52.7207489 C78.99912418 48.23471803 80.06794532 43.29938572 80.18240356 37.0957489 C79.7432822 32.6882715 78.73058035 29.80054763 75.99490356 26.2832489 C69.30894261 21.08305705 63.65067907 20.67166509 55.43630981 20.80278015 C53.91963966 20.80914742 53.91963966 20.80914742 52.37232971 20.81564331 C49.16290956 20.83235136 45.95413191 20.86998937 42.74490356 20.9082489 C40.56066788 20.9233059 38.37642229 20.93699252 36.19216919 20.94926453 C30.85513775 20.97966919 25.51948451 21.03840661 20.18240356 21.0957489 Z M20.18240356 77.0957489 C20.18240356 89.9657489 20.18240356 102.8357489 20.18240356 116.0957489 C27.28116183 116.1648179 34.37874239 116.22449453 41.47756958 116.26054382 C43.88971927 116.27558035 46.30184184 116.29601489 48.71389771 116.32206726 C52.1917492 116.35867622 55.6692375 116.37552719 59.14724731 116.38871765 C60.75091408 116.41194344 60.75091408 116.41194344 62.38697815 116.43563843 C70.07216514 116.43734506 76.43582131 115.37627723 83.05740356 111.3457489 C87.51680001 106.62403502 88.38486839 102.35569519 88.61990356 96.0332489 C88.42284939 89.16205555 86.22923094 86.14257628 81.43240356 81.3457489 C74.39429176 76.47320996 66.72013511 76.81945177 58.46365356 76.9004364 C57.3651709 76.9032663 56.26668823 76.90609619 55.13491821 76.90901184 C51.65063256 76.92014404 48.16661061 76.94523592 44.68240356 76.9707489 C42.31001146 76.98078769 39.9376153 76.98991196 37.56521606 76.99809265 C31.77076363 77.01835297 25.97687634 77.05751558 20.18240356 77.0957489 Z " fill="#FBBD2D" transform="translate(77.81759643554688,54.90425109863281)"/>
<path d="M0 0 C2.70461176 2.29414053 4.77444271 4.74254133 6.87890625 7.59375 C6.87890625 2.97375 6.87890625 -1.64625 6.87890625 -6.40625 C9.3160684 -7.62483107 10.91164682 -7.53550575 13.6328125 -7.5390625 C15.03756836 -7.54099609 15.03756836 -7.54099609 16.47070312 -7.54296875 C17.94120117 -7.53716797 17.94120117 -7.53716797 19.44140625 -7.53125 C20.42560547 -7.53511719 21.40980469 -7.53898437 22.42382812 -7.54296875 C23.35904297 -7.54167969 24.29425781 -7.54039063 25.2578125 -7.5390625 C26.11963135 -7.53793457 26.9814502 -7.53680664 27.86938477 -7.53564453 C29.87890625 -7.40625 29.87890625 -7.40625 30.87890625 -6.40625 C30.99548702 -3.61016093 31.04693006 -0.83845627 31.0559082 1.95874023 C31.0624794 2.83705505 31.0690506 3.71536987 31.07582092 4.62030029 C31.09563528 7.54764895 31.1072452 10.47494567 31.1171875 13.40234375 C31.12126303 14.40498827 31.12533855 15.40763279 31.12953758 16.44066048 C31.15045004 21.76520712 31.16471948 27.08972774 31.17407227 32.41430664 C31.18504339 37.87309738 31.21931873 43.33146986 31.25924397 48.7901144 C31.2856368 53.01740682 31.29378484 57.24460399 31.29735374 61.47197151 C31.30217516 63.48066031 31.31365924 65.48934617 31.33239174 67.49795341 C31.50982674 87.81529565 29.64222283 105.67910521 15.87890625 121.59375 C10.16106101 126.34380796 3.8786765 130.08619224 -3.12109375 132.59375 C-4.0853125 132.95082031 -5.04953125 133.30789062 -6.04296875 133.67578125 C-19.80213071 137.48377596 -39.05449482 136.30160572 -52.12109375 130.59375 C-53.20390625 130.12324219 -54.28671875 129.65273437 -55.40234375 129.16796875 C-60.93472412 126.56962991 -65.67528245 123.79257178 -70.12109375 119.59375 C-69.54624966 115.5842125 -68.28737601 112.87439567 -66.12109375 109.46875 C-64.42439276 106.78502583 -63.12852449 104.61604222 -62.12109375 101.59375 C-58.12109375 101.59375 -58.12109375 101.59375 -56.18359375 103.40234375 C-55.50296875 104.12550781 -54.82234375 104.84867187 -54.12109375 105.59375 C-43.25940542 112.90037916 -31.15767148 116.02087844 -18.12109375 114.59375 C-10.23121023 112.78714019 -3.59488125 109.49104676 1.15625 102.79296875 C3.7995577 98.39999829 4.92740082 94.5364238 5.1953125 89.484375 C5.23720703 88.73027344 5.27910156 87.97617188 5.32226562 87.19921875 C5.36158203 86.42191406 5.40089844 85.64460938 5.44140625 84.84375 C5.50618164 83.65458984 5.50618164 83.65458984 5.57226562 82.44140625 C5.67793616 80.49237185 5.77888591 78.54308252 5.87890625 76.59375 C4.81136925 77.61341823 4.81136925 77.61341823 3.8203125 79.01171875 C-0.35338855 84.36777137 -5.09395787 87.54320577 -11.12109375 90.59375 C-11.7965625 90.93664062 -12.47203125 91.27953125 -13.16796875 91.6328125 C-22.55032211 95.52394355 -35.59040836 94.94697292 -45.00390625 91.4921875 C-45.70257813 91.19570312 -46.40125 90.89921875 -47.12109375 90.59375 C-48.10722656 90.21089844 -48.10722656 90.21089844 -49.11328125 89.8203125 C-58.86554992 85.5512471 -67.2100613 77.99658042 -72.12109375 68.59375 C-72.848125 67.31757813 -72.848125 67.31757813 -73.58984375 66.015625 C-77.27210582 58.3647027 -77.58320892 51.23707324 -77.62109375 42.84375 C-77.62737793 41.77833984 -77.63366211 40.71292969 -77.64013672 39.61523438 C-77.53507823 33.07508854 -76.62661473 27.63490915 -74.12109375 21.59375 C-73.76789063 20.69785156 -73.4146875 19.80195312 -73.05078125 18.87890625 C-68.27441624 8.81315925 -61.38157221 1.09667354 -51.12109375 -3.40625 C-50.25871094 -3.78523438 -49.39632813 -4.16421875 -48.5078125 -4.5546875 C-32.54638365 -11.22301777 -14.27179195 -10.30302476 0 0 Z M-48.12109375 23.59375 C-53.75011665 30.82629278 -54.65835218 39.12221474 -53.59765625 47.953125 C-51.96176785 57.01755581 -47.83902575 63.95168733 -40.24609375 69.26953125 C-33.1800434 73.67282366 -26.39428841 74.543833 -18.12109375 73.59375 C-10.20430281 71.60047547 -3.86897391 67.82125794 0.60546875 60.9375 C5.41525792 52.45768213 7.28521108 44.63561462 5.34765625 34.93359375 C2.63747831 25.16811563 -2.24612161 19.56694818 -10.92578125 14.55078125 C-24.49363457 8.34916589 -38.50142018 13.27605023 -48.12109375 23.59375 Z " fill="#EE772E" transform="translate(531.12109375,94.40625)"/>
<path d="M0 0 C1.00023193 0.00523682 2.00046387 0.01047363 3.03100586 0.01586914 C4.1105957 0.0190918 5.19018555 0.02231445 6.30249023 0.02563477 C8.00695312 0.03820313 8.00695312 0.03820313 9.74584961 0.05102539 C11.45611328 0.05779297 11.45611328 0.05779297 13.20092773 0.06469727 C16.02845312 0.07652792 18.85587601 0.09301129 21.68334961 0.11352539 C22.71064138 18.45802121 22.79664007 36.74826964 22.68334961 55.11352539 C23.12485352 54.56937988 23.56635742 54.02523437 24.02124023 53.46459961 C27.4219449 49.40366146 30.16735353 46.25967675 35.18334961 44.23852539 C36.05991211 43.86985352 36.93647461 43.50118164 37.83959961 43.12133789 C44.23598777 40.85448604 49.75228649 39.75172929 56.49584961 39.80102539 C57.68778931 39.80839722 57.68778931 39.80839722 58.90380859 39.81591797 C73.04137478 40.09765792 83.83711924 46.17114042 93.68334961 56.11352539 C103.37486725 66.53695452 106.20621809 82.41020068 105.99975586 96.13305664 C104.68603901 112.65993903 97.9476419 125.96790358 85.64038086 136.93383789 C75.12268591 145.28921232 62.93797865 148.16125642 49.68334961 147.11352539 C38.26498408 145.3913638 29.40891094 140.6523037 21.68334961 132.11352539 C21.5924707 133.39549805 21.5924707 133.39549805 21.49975586 134.70336914 C21.37407227 136.36045898 21.37407227 136.36045898 21.24584961 138.05102539 C21.16463867 139.15317383 21.08342773 140.25532227 20.99975586 141.39086914 C20.68334961 144.11352539 20.68334961 144.11352539 19.68334961 145.11352539 C18.04862079 145.20052881 16.41020906 145.22053602 14.77319336 145.21118164 C13.78383789 145.20795898 12.79448242 145.20473633 11.77514648 145.20141602 C10.73422852 145.19303711 9.69331055 145.1846582 8.62084961 145.17602539 C7.57606445 145.17151367 6.5312793 145.16700195 5.45483398 145.16235352 C2.86428301 145.15052452 0.27384402 145.13404228 -2.31665039 145.11352539 C-3.37100457 141.95046286 -3.44242487 139.72824786 -3.44363403 136.40658569 C-3.44645386 135.21751114 -3.44927368 134.02843658 -3.45217896 132.80332947 C-3.45015472 131.49723221 -3.44813049 130.19113495 -3.44604492 128.84545898 C-3.44739978 127.45749363 -3.44918019 126.06952864 -3.45135498 124.68156433 C-3.45591843 120.91112498 -3.45414444 117.14071295 -3.45097589 113.37027311 C-3.4484477 109.42959741 -3.45079102 105.48892408 -3.45236206 101.54824829 C-3.45418198 94.93230773 -3.45178164 88.31637832 -3.44702148 81.70043945 C-3.44157471 74.04154168 -3.44334524 66.3826705 -3.44884789 58.72377336 C-3.45337871 52.15559644 -3.45402986 45.58742754 -3.45140922 39.01924956 C-3.44984685 35.09289019 -3.44965168 31.16654335 -3.45294571 27.24018478 C-3.45582412 23.5515626 -3.4538493 19.8629749 -3.44805145 16.17435646 C-3.44608827 14.16712619 -3.4490777 12.15989302 -3.45217896 10.15266418 C-3.44935913 8.96922928 -3.44653931 7.78579437 -3.44363403 6.5664978 C-3.44325701 5.53153357 -3.44287998 4.49656933 -3.44249153 3.43024254 C-3.27265613 0.30359736 -3.12841124 0.15330501 0 0 Z M28.24975586 70.71118164 C21.90247863 78.97959322 20.07015217 88.47643007 20.89819336 98.78930664 C22.37994744 107.86328636 26.42991613 114.90553423 33.58959961 120.67602539 C40.46887476 125.39910982 49.17982789 127.07169248 57.39819336 125.64086914 C65.64266724 123.37208911 71.8986742 119.24336565 76.68334961 112.11352539 C81.57053099 102.04438026 83.35249721 92.89878864 80.12084961 81.98852539 C78.03215502 76.22609847 75.11164798 72.289067 70.68334961 68.11352539 C69.92022461 67.35040039 69.15709961 66.58727539 68.37084961 65.80102539 C55.76112944 57.88329412 38.34242529 59.46349282 28.24975586 70.71118164 Z " fill="#419C53" transform="translate(815.316650390625,45.886474609375)"/>
<path d="M0 0 C0.80308594 0.350625 1.60617187 0.70125 2.43359375 1.0625 C15.21163057 7.44044559 23.99771816 18.25211048 28.51098633 31.63598633 C30.15975755 37.32862276 30.46755376 42.90728425 30.5 48.8125 C30.50942627 50.10075684 30.50942627 50.10075684 30.51904297 51.41503906 C30.23933492 65.55251562 24.31290039 77.34485781 14.67578125 87.453125 C3.65604908 97.94197956 -9.18075528 102.80219189 -24.3125 103.3125 C-38.65417322 102.94580949 -53.66133354 98.17088821 -64.1953125 88.06640625 C-75.81780885 74.75839636 -79.98387749 60.49577122 -79.18798828 43.05419922 C-77.90998862 29.08914835 -69.96868126 15.5445855 -59.32421875 6.6640625 C-42.43860317 -5.42547067 -19.15236007 -8.3774352 0 0 Z M-47 26 C-53.86313001 36.22027553 -56.18816414 45.87392374 -54 58 C-51.75301118 67.2688289 -46.19798196 73.89184824 -38.1484375 78.8125 C-31.271503 82.61356925 -23.9778377 83.22429882 -16.34765625 81.34765625 C-6.89515584 77.95407752 -1.18711122 72.03119243 3.87109375 63.52734375 C7.36073386 55.71489686 7.35533563 44.14269873 4.87890625 35.96875 C0.89223954 27.03861658 -4.81950729 21.38100949 -13.859375 17.8984375 C-25.25515709 14.63845009 -38.83870377 17.07951342 -47 26 Z " fill="#5AA857" transform="translate(763,90)"/>
<path d="M0 0 C1.03447266 0.47566406 1.03447266 0.47566406 2.08984375 0.9609375 C10.80988329 5.68080535 16.13536437 13.85405869 19.2109375 23.06640625 C19.60152344 24.51853516 19.60152344 24.51853516 20 26 C20.51228149 27.84549438 20.51228149 27.84549438 21.03491211 29.72827148 C22.5214101 36.51015213 22.26781752 43.37386588 22.23046875 50.28125 C22.2292746 51.74572713 22.22882429 53.21020503 22.2290802 54.67468262 C22.22752548 57.72392663 22.21930761 60.77305154 22.20581055 63.82226562 C22.18870092 67.73760368 22.18500018 71.65281282 22.18575573 75.5681839 C22.18548464 78.58265419 22.18001531 81.59709612 22.17275429 84.61155701 C22.16956725 86.05651129 22.16760013 87.50146878 22.16686058 88.94642639 C22.16470424 90.95453038 22.15517763 92.96262245 22.14526367 94.97070312 C22.14145187 96.11381958 22.13764008 97.25693604 22.13371277 98.43469238 C22 101 22 101 21 102 C19.21928754 102.08726223 17.4351686 102.10699041 15.65234375 102.09765625 C14.57275391 102.09443359 13.49316406 102.09121094 12.38085938 102.08789062 C11.24455078 102.07951172 10.10824219 102.07113281 8.9375 102.0625 C7.79732422 102.05798828 6.65714844 102.05347656 5.48242188 102.04882812 C2.65489649 102.03699747 -0.1725264 102.0205141 -3 102 C-3.00546844 100.83061386 -3.00546844 100.83061386 -3.01104736 99.63760376 C-3.04907904 92.25294042 -3.10610158 84.86877316 -3.18390274 77.48443031 C-3.22323648 73.68898538 -3.25549328 69.89376755 -3.27099609 66.09814453 C-3.28625676 62.427935 -3.32086536 58.75835041 -3.36830902 55.08842087 C-3.38302677 53.69561605 -3.39103544 52.30272195 -3.39188385 50.90983963 C-3.40392692 41.04263539 -4.60470514 33.50271925 -9.8125 25.0625 C-15.34155123 19.84939455 -21.61250661 19.44122268 -28.92919922 19.52392578 C-35.20651305 19.75448547 -40.17115923 20.88722307 -45 25 C-52.69498595 34.53019181 -53.30717763 43.99884116 -53.4140625 55.80859375 C-53.43279826 57.14381576 -53.45237342 58.47902623 -53.4727478 59.81422424 C-53.52382119 63.30753743 -53.56357847 66.80088891 -53.60089111 70.29437256 C-53.64108738 73.8675667 -53.69210798 77.44060501 -53.7421875 81.01367188 C-53.83865265 88.00900663 -53.92214841 95.00443356 -54 102 C-61.59 102 -69.18 102 -77 102 C-77.33 68.01 -77.66 34.02 -78 -1 C-75.62384014 -2.18807993 -74.1488258 -2.12914522 -71.5 -2.1328125 C-70.1696875 -2.13474609 -70.1696875 -2.13474609 -68.8125 -2.13671875 C-67.884375 -2.13285156 -66.95625 -2.12898438 -66 -2.125 C-64.6078125 -2.13080078 -64.6078125 -2.13080078 -63.1875 -2.13671875 C-62.300625 -2.13542969 -61.41375 -2.13414063 -60.5 -2.1328125 C-59.6853125 -2.13168457 -58.870625 -2.13055664 -58.03125 -2.12939453 C-56 -2 -56 -2 -54 -1 C-54 3.29 -54 7.58 -54 12 C-53.29875 11.278125 -52.5975 10.55625 -51.875 9.8125 C-38.69541195 -3.18352833 -17.40922524 -8.12650742 0 0 Z " fill="#F09232" transform="translate(414,89)"/>
<path d="M0 0 C0.68319305 0.30675659 1.36638611 0.61351318 2.07028198 0.92956543 C3.16842728 1.4118158 3.16842728 1.4118158 4.28875732 1.90380859 C5.86049222 2.59423488 7.43100589 3.28744677 9.00039673 3.98318481 C13.14416045 5.8188979 17.29794949 7.6315072 21.45309448 9.44128418 C22.29163971 9.80663773 23.13018494 10.17199127 23.99414062 10.54841614 C35.43931325 15.51364097 47.04409483 20.06915871 58.65133667 24.63903809 C61.94350448 25.95256816 65.19963228 27.32967257 68.44528198 28.75378418 C65.77794306 32.20563455 62.52732018 32.66838674 58.44528198 33.75378418 C58.51474462 38.1468165 58.60298377 42.53897497 58.70773315 46.93127441 C58.74073993 48.42173175 58.76884525 49.9123068 58.79171753 51.4029541 C58.92212602 59.67973109 59.28917994 66.97594961 62.44528198 74.75378418 C62.82028198 77.69128418 62.82028198 77.69128418 62.44528198 79.75378418 C58.97529469 82.06710904 57.5201895 82.09335981 53.44528198 81.75378418 C52.45528198 81.09378418 51.46528198 80.43378418 50.44528198 79.75378418 C50.18063354 77.75427246 50.18063354 77.75427246 50.33590698 75.32409668 C50.38618042 74.44624512 50.43645386 73.56839355 50.48825073 72.66394043 C50.55657104 71.74483887 50.62489136 70.8257373 50.69528198 69.87878418 C50.74813354 68.96741699 50.80098511 68.0560498 50.85543823 67.11706543 C51.27736857 60.41524162 51.27736857 60.41524162 51.95187378 57.75817871 C52.51449422 55.47262018 52.65620472 53.33893456 52.76168823 50.98815918 C52.80358276 50.09870605 52.84547729 49.20925293 52.88864136 48.29284668 C52.92795776 47.37245605 52.96727417 46.45206543 53.00778198 45.50378418 C53.07255737 44.09999512 53.07255737 44.09999512 53.13864136 42.66784668 C53.24446248 40.36329777 53.34654755 38.05864579 53.44528198 35.75378418 C52.34828979 36.2822998 51.25129761 36.81081543 50.12106323 37.35534668 C48.66706594 38.03075187 47.21261461 38.70518021 45.75778198 39.37878418 C45.03655151 39.72940918 44.31532104 40.08003418 43.57223511 40.44128418 C38.17774796 42.90452032 38.17774796 42.90452032 34.88278198 42.22644043 C34.07840698 41.74046387 33.27403198 41.2544873 32.44528198 40.75378418 C31.28351851 40.09187505 30.12066289 39.43188087 28.95700073 38.77331543 C27.03816707 37.67033261 25.1269552 36.5627377 23.23629761 35.4119873 C18.19365526 32.56224789 15.10413069 32.56674488 9.44528198 33.75378418 C11.7978528 35.32216472 13.8367319 36.45400446 16.38668823 37.59362793 C17.13498901 37.93458496 17.88328979 38.27554199 18.65426636 38.62683105 C20.22506002 39.337273 21.79799561 40.04299776 23.37301636 40.74401855 C24.12002808 41.08626465 24.86703979 41.42851074 25.63668823 41.78112793 C26.31932739 42.08784424 27.00196655 42.39456055 27.70529175 42.71057129 C29.44528198 43.75378418 29.44528198 43.75378418 31.44528198 46.75378418 C24.6399766 49.88551859 17.75054846 52.53990228 10.6803894 55.00598145 C6.88699975 56.36084221 3.32434541 57.70324897 -0.11331177 59.82019043 C-3.36665566 61.7656982 -5.81678635 63.07950837 -9.55471802 63.75378418 C-14.65150529 62.14067728 -18.9069403 59.63413543 -23.47561646 56.90661621 C-26.84148535 55.04029013 -30.37570607 53.73615316 -33.99221802 52.44128418 C-34.65842163 52.19910156 -35.32462524 51.95691895 -36.01101685 51.70739746 C-40.83185698 49.97404809 -45.67768531 48.32140184 -50.55471802 46.75378418 C-50.55471802 45.76378418 -50.55471802 44.77378418 -50.55471802 43.75378418 C-48.55471802 42.06628418 -48.55471802 42.06628418 -46.55471802 40.75378418 C-48.90839515 40.06596058 -48.90839515 40.06596058 -51.55471802 39.75378418 C-52.54471802 40.41378418 -53.53471802 41.07378418 -54.55471802 41.75378418 C-61.71420847 41.54249388 -67.89404123 38.99980727 -74.49221802 36.37878418 C-75.54473755 35.9791748 -76.59725708 35.57956543 -77.68167114 35.16784668 C-78.68005005 34.77597168 -79.67842896 34.38409668 -80.70706177 33.98034668 C-81.6144812 33.62537109 -82.52190063 33.27039551 -83.45681763 32.90466309 C-85.55471802 31.75378418 -85.55471802 31.75378418 -86.55471802 28.75378418 C-75.72005686 23.97638868 -64.88783527 19.21374467 -53.86721802 14.87878418 C-45.36411428 11.53062118 -36.95237922 7.98118501 -28.55471802 4.37878418 C-27.6258226 3.98097748 -27.6258226 3.98097748 -26.67816162 3.57513428 C-19.96457916 0.86580553 -19.96457916 0.86580553 -13.56643677 -2.46740723 C-8.91941381 -4.26643674 -4.31517833 -1.88759133 0 0 Z " fill="#F8B92D" transform="translate(269.5547180175781,49.2462158203125)"/>
<path d="M0 0 C24.09 0 48.18 0 73 0 C72.8707605 25.51365927 72.8707605 25.51365927 72.79101562 36.43164062 C72.73679248 43.86659821 72.6856783 51.30148203 72.65356445 58.73657227 C72.62745818 64.73432342 72.5870038 70.73182536 72.53681374 76.72942162 C72.52019453 79.01178055 72.50864958 81.29418255 72.50238609 83.5765934 C72.4926912 86.78610675 72.46456729 89.99498957 72.43237305 93.2043457 C72.43452568 94.60373886 72.43452568 94.60373886 72.4367218 96.03140259 C72.26973424 107.88731837 69.03623364 117.19710694 61 126 C49.90261794 136.05292257 37.4738177 137.85306849 23.02734375 137.390625 C14.41902826 136.8832145 6.79254933 134.40316424 0 129 C-0.64582031 128.49597656 -1.29164063 127.99195313 -1.95703125 127.47265625 C-6.48790731 123.76557583 -10.97761407 119.63615751 -13 114 C-12.9609375 111.48828125 -12.9609375 111.48828125 -12 109 C-9.56640625 107.05078125 -9.56640625 107.05078125 -6.5625 105.3125 C-2.527763 102.98433108 -2.527763 102.98433108 1 100 C3.4375 100.0625 3.4375 100.0625 6 101 C9 105.03448276 9 105.03448276 9 108 C9.56460938 108.27585937 10.12921875 108.55171875 10.7109375 108.8359375 C12.23782634 109.61240998 13.74410494 110.4307976 15.2265625 111.2890625 C21.22809825 114.63193746 26.13524153 116.21142796 33 115 C38.29853231 113.2825447 42.04633375 110.81338204 45 106 C47.34631274 100.53968831 48.44477017 95.99480433 48.43237305 90.0234375 C48.4425647 89.27124435 48.45275635 88.51905121 48.46325684 87.74406433 C48.49316036 85.28763157 48.50261758 82.83159014 48.51171875 80.375 C48.52858231 78.66006192 48.54673479 76.94513608 48.56611633 75.23022461 C48.61344058 70.73899153 48.64336325 66.24780808 48.66955566 61.75640869 C48.69945029 57.16432907 48.74594987 52.57242011 48.79101562 47.98046875 C48.87684853 38.98706877 48.9442824 29.99363348 49 21 C48.10130943 21.00333092 48.10130943 21.00333092 47.1844635 21.00672913 C40.97202142 21.02878165 34.75959038 21.04390646 28.54711914 21.05493164 C26.22582549 21.05997333 23.90453503 21.06680651 21.58325195 21.07543945 C18.25471205 21.08751225 14.92621398 21.09322979 11.59765625 21.09765625 C10.03048607 21.10539818 10.03048607 21.10539818 8.43165588 21.11329651 C7.47073532 21.11337204 6.50981476 21.11344757 5.51977539 21.11352539 C4.66928116 21.115746 3.81878693 21.11796661 2.94252014 21.12025452 C1 21 1 21 0 20 C0 13.4 0 6.8 0 0 Z " fill="#66AC54" transform="translate(592,56)"/>
<path d="M0 0 C-0.59465292 4.40703887 -1.68554002 8.2014807 -3.375 12.3125 C-3.79523438 13.36050781 -4.21546875 14.40851563 -4.6484375 15.48828125 C-6 18 -6 18 -9 19 C-11.1640625 18.29296875 -11.1640625 18.29296875 -13.625 17.1875 C-21.64407777 13.59318844 -29.47283451 12.65451489 -38.1875 12.6875 C-39.05052734 12.67138672 -39.91355469 12.65527344 -40.80273438 12.63867188 C-46.02500337 12.63467626 -49.39859266 13.28781744 -54 16 C-54.66 16 -55.32 16 -56 16 C-56.65759134 22.83832486 -56.65759134 22.83832486 -54 28.9375 C-47.0999359 33.68129407 -39.32661691 34.82012973 -31.25 36.3125 C-19.08374828 38.72127615 -7.87272289 41.64115409 0 52 C4.06103327 58.4190526 3.96114712 65.59678416 3 73 C0.09496744 82.06625545 -4.91051039 88.30794724 -12.984375 93.203125 C-29.36180883 101.45341121 -48.67581207 99.92624974 -65.73828125 94.8984375 C-72.45972816 92.44996683 -78.28452978 89.29767915 -84 85 C-82.50596865 80.01989549 -80.38075843 75.59411979 -78 71 C-77.33147697 69.66759646 -76.66429314 68.33451746 -76 67 C-72.31463264 68.39789796 -68.91114102 70.08016541 -65.4375 71.9375 C-53.14282455 78.06984422 -39.48302767 80.48629535 -26.0625 76.5 C-24.7005346 76.02165118 -23.34244761 75.53066164 -22 75 C-21.77668801 73.41870971 -21.57195356 71.83478911 -21.375 70.25 C-21.25898437 69.36828125 -21.14296875 68.4865625 -21.0234375 67.578125 C-20.99674587 64.64204621 -21.41901687 63.44800327 -23 61 C-30.74833533 56.32329811 -40.63829596 55.15412304 -49.3671875 53.37695312 C-58.46493793 51.41290936 -67.33910832 48.91395439 -73.5 41.5 C-74.1290625 40.7678125 -74.758125 40.035625 -75.40625 39.28125 C-80.18217981 32.44511517 -80.68409624 23.94639585 -79.4375 15.875 C-77.66346488 8.5220913 -73.84420945 2.99497209 -67.6875 -1.375 C-47.63783317 -13.56006688 -20.34004711 -8.81169849 0 0 Z " fill="#349353" transform="translate(1014,94)"/>
<path d="M0 0 C7.98676972 1.51473219 15.40122878 4.16802552 23 7 C23 8.32 23 9.64 23 11 C21.82607929 12.14038012 20.64742662 13.27643484 19.44140625 14.3828125 C13.37405907 21.19008007 11.72143739 29.64756143 11.8515625 38.45703125 C12.35738432 47.12255766 15.75853769 56.3705918 22.1875 62.375 C29.96769952 68.27722032 38.34514656 70.27372737 48 69 C56.64878972 66.61244678 63.43151859 62.81666168 67.96875 54.94921875 C72.90635301 45.61640094 73.37492916 34.38910462 70.83203125 24.19921875 C69.25382706 20.02772128 66.66295649 16.54383269 64 13 C63.16275391 11.88044922 63.16275391 11.88044922 62.30859375 10.73828125 C61.66083984 9.87783203 61.66083984 9.87783203 61 9 C64.99305082 7.31626357 68.99431945 5.65345045 73 4 C73.78117187 3.67 74.56234375 3.34 75.3671875 3 C79.45122929 1.34731383 82.6291757 0.88303428 87 1 C96.18324381 18.21324305 100.2804746 34.5008583 95.10546875 53.9375 C90.0407328 67.96842927 80.33449887 78.90020813 67.0078125 85.4765625 C52.33840548 91.85943426 36.28961128 93.6877354 21 88 C9.18707008 83.00441156 -1.56183776 74.92212492 -7 63 C-7.42925781 62.06027344 -7.85851562 61.12054688 -8.30078125 60.15234375 C-14.33265089 46.4404598 -14.94837619 31.64033704 -9.70703125 17.515625 C-7.14300743 11.13174619 -4.3396744 5.36077426 0 0 Z " fill="#F6A432" transform="translate(217,102)"/>
<path d="M0 0 C0.99 1.485 0.99 1.485 2 3 C-4.80530538 6.13173441 -11.69473352 8.7861181 -18.76489258 11.25219727 C-22.55828224 12.60705803 -26.12093657 13.94946479 -29.55859375 16.06640625 C-32.81193764 18.01191402 -35.26206833 19.32572419 -39 20 C-44.09678727 18.3868931 -48.35222228 15.88035125 -52.92089844 13.15283203 C-56.28676733 11.28650595 -59.82098805 9.98236898 -63.4375 8.6875 C-64.10370361 8.44531738 -64.76990723 8.20313477 -65.45629883 7.95361328 C-70.27713896 6.22026391 -75.12296729 4.56761766 -80 3 C-80 2.01 -80 1.02 -80 0 C-53.64514625 -13.66547972 -26.00471754 -15.19239093 0 0 Z " fill="#F8B031" transform="translate(299,93)"/>
<path d="M0 0 C1.08144287 0.00322266 2.16288574 0.00644531 3.27709961 0.00976562 C11.93343037 0.15971476 19.55085465 1.47390885 27.6875 4.4375 C22.04472412 8.19935058 15.67523698 8.8214062 9.05078125 7.74609375 C-3.6219287 6.09131014 -16.35237407 7.75074551 -28.0078125 13.0859375 C-32.5071722 14.92610116 -34.65140009 14.48222929 -39.3125 13.4375 C-39.6425 12.7775 -39.9725 12.1175 -40.3125 11.4375 C-37.90339248 10.15040068 -35.48659897 8.88332774 -33.0625 7.625 C-32.39992187 7.26857422 -31.73734375 6.91214844 -31.0546875 6.54492188 C-21.13297251 1.44366276 -11.06571585 -0.10368438 0 0 Z " fill="#FEFBED" transform="translate(258.3125,75.5625)"/>
<path d="M0 0 C1.40475586 -0.00193359 1.40475586 -0.00193359 2.83789062 -0.00390625 C4.30838867 0.00189453 4.30838867 0.00189453 5.80859375 0.0078125 C6.79279297 0.00394531 7.77699219 0.00007813 8.79101562 -0.00390625 C9.72623047 -0.00261719 10.66144531 -0.00132813 11.625 0 C12.48681885 0.00112793 13.3486377 0.00225586 14.23657227 0.00341797 C16.24609375 0.1328125 16.24609375 0.1328125 17.24609375 1.1328125 C17.34667017 3.99249662 17.38224717 6.82806361 17.37548828 9.68823242 C17.3772406 10.58582275 17.37899292 11.48341309 17.38079834 12.40820312 C17.38522061 15.3932485 17.38227632 18.3782352 17.37890625 21.36328125 C17.37957948 23.43256135 17.38054966 25.50184138 17.38180542 27.57112122 C17.38328314 31.91827138 17.38112656 36.26540104 17.37646484 40.61254883 C17.37078525 46.17996713 17.37403483 51.74733704 17.38003731 57.31475353 C17.38365609 61.59302635 17.38249796 65.87128776 17.37990952 70.14956093 C17.37924297 72.20163288 17.38005916 74.25370586 17.38238907 76.3057766 C17.38493518 79.18068544 17.38104655 82.05551683 17.37548828 84.93041992 C17.37751251 85.7768959 17.37953674 86.62337189 17.38162231 87.49549866 C17.3661687 91.82124173 17.11031913 95.87267305 16.24609375 100.1328125 C15.91609375 100.1328125 15.58609375 100.1328125 15.24609375 100.1328125 C15.24609375 67.7928125 15.24609375 35.4528125 15.24609375 2.1328125 C8.31609375 2.1328125 1.38609375 2.1328125 -5.75390625 2.1328125 C-5.75390625 5.4328125 -5.75390625 8.7328125 -5.75390625 12.1328125 C-6.08390625 12.1328125 -6.41390625 12.1328125 -6.75390625 12.1328125 C-6.75390625 8.5028125 -6.75390625 4.8728125 -6.75390625 1.1328125 C-4.3167441 -0.08576857 -2.72116568 0.00355675 0 0 Z " fill="#EEC1A6" transform="translate(544.75390625,86.8671875)"/>
<path d="M0 0 C1.65 0 3.3 0 5 0 C7.68474778 4.79419246 9.79124929 10.46125494 9 16 C5.53001271 18.31332486 4.07490752 18.33957563 0 18 C-0.99 17.34 -1.98 16.68 -3 16 C-2.88544319 14.08268082 -2.75793742 12.1661325 -2.625 10.25 C-2.55539062 9.18265625 -2.48578125 8.1153125 -2.4140625 7.015625 C-2.0271777 4.19793568 -1.44313834 2.4169634 0 0 Z " fill="#F4AA41" transform="translate(323,113)"/>
<path d="M0 0 C0.99 0.33 1.98 0.66 3 1 C2.34 1 1.68 1 1 1 C1.03552979 1.80219971 1.07105957 2.60439941 1.10766602 3.4309082 C1.26506346 7.05788139 1.41388351 10.68515686 1.5625 14.3125 C1.61857422 15.57513672 1.67464844 16.83777344 1.73242188 18.13867188 C1.78076172 19.34716797 1.82910156 20.55566406 1.87890625 21.80078125 C1.9260376 22.91622314 1.97316895 24.03166504 2.02172852 25.1809082 C2 28 2 28 1 31 C0.01 31.33 -0.98 31.66 -2 32 C-2.66 31.67 -3.32 31.34 -4 31 C-4.495 32.485 -4.495 32.485 -5 34 C-5.19406478 32.35492782 -5.38007935 30.70890406 -5.5625 29.0625 C-5.66691406 28.14597656 -5.77132813 27.22945312 -5.87890625 26.28515625 C-5.91886719 25.53105469 -5.95882813 24.77695313 -6 24 C-5.67 23.67 -5.34 23.34 -5 23 C-4.91314397 21.43827255 -4.89297781 19.87270656 -4.90234375 18.30859375 C-4.90556641 17.36435547 -4.90878906 16.42011719 -4.91210938 15.44726562 C-4.92048828 14.45404297 -4.92886719 13.46082031 -4.9375 12.4375 C-4.94201172 11.44041016 -4.94652344 10.44332031 -4.95117188 9.41601562 C-4.96299993 6.94395151 -4.97948151 4.47200482 -5 2 C-4.34 2 -3.68 2 -3 2 C-2.67 8.93 -2.34 15.86 -2 23 C-1.34 23 -0.68 23 0 23 C0 15.41 0 7.82 0 0 Z " fill="#F5CE83" transform="translate(327,82)"/>
<path d="M0 0 C0.33 0 0.66 0 1 0 C1 7.26 1 14.52 1 22 C0.01 22.33 -0.98 22.66 -2 23 C-2.0580476 19.72924117 -2.09361165 16.45861476 -2.125 13.1875 C-2.14175781 12.25873047 -2.15851563 11.32996094 -2.17578125 10.37304688 C-2.18222656 9.48037109 -2.18867188 8.58769531 -2.1953125 7.66796875 C-2.20578613 6.84578857 -2.21625977 6.0236084 -2.22705078 5.17651367 C-2 3 -2 3 0 0 Z " fill="#E4A230" transform="translate(326,83)"/>
<path d="M0 0 C0.66 0 1.32 0 2 0 C2 2.31 2 4.62 2 7 C2.66 7 3.32 7 4 7 C4.55353075 21.78132118 4.55353075 21.78132118 1 28 C0 26 0 26 0.4375 23.5625 C1.67979442 15.69463532 1.03058697 7.85822561 0 0 Z " fill="#EFB66B" transform="translate(288,124)"/>
<path d="M0 0 C1.32 0 2.64 0 4 0 C5.75 2 5.75 2 7 4 C6.2575 3.87625 5.515 3.7525 4.75 3.625 C3.8425 3.74875 2.935 3.8725 2 4 C-0.21168225 6.94236782 -0.21168225 6.94236782 -2 10 C-2.66 10 -3.32 10 -4 10 C-2.8905928 6.51329166 -1.73662334 3.22515763 0 0 Z " fill="#E9A47E" transform="translate(469,196)"/>
<path d="M0 0 C0 0.66 0 1.32 0 2 C0.66 2.33 1.32 2.66 2 3 C1.14277344 2.98839844 0.28554688 2.97679688 -0.59765625 2.96484375 C-6.50860552 2.9181959 -12.18156704 2.91750084 -18 4 C-17.67 3.01 -17.34 2.02 -17 1 C-15.10440036 0.83069605 -13.20850769 0.66467136 -11.3125 0.5 C-10.25675781 0.4071875 -9.20101562 0.314375 -8.11328125 0.21875 C-5.39363975 0.0276585 -2.72460144 -0.04043935 0 0 Z " fill="#A1C9A2" transform="translate(873,105)"/>
<path d="M0 0 C2.49310643 3.73965964 2.0603261 5.29070641 1.625 9.6875 C1.51414063 10.86699219 1.40328125 12.04648438 1.2890625 13.26171875 C1.19367188 14.16535156 1.09828125 15.06898437 1 16 C0.01 16.33 -0.98 16.66 -2 17 C-1.855625 16.19175781 -1.71125 15.38351563 -1.5625 14.55078125 C-1.376875 13.48214844 -1.19125 12.41351563 -1 11.3125 C-0.814375 10.25675781 -0.62875 9.20101562 -0.4375 8.11328125 C-0.04931926 5.35095938 0.08259976 2.78257957 0 0 Z " fill="#F8E2A2" transform="translate(157,87)"/>
<path d="M0 0 C0.66 0.33 1.32 0.66 2 1 C1.2575 1.6496875 1.2575 1.6496875 0.5 2.3125 C-1.33218192 3.99740483 -1.33218192 3.99740483 -1 7 C-2.65 6.67 -4.3 6.34 -6 6 C-6 5.01 -6 4.02 -6 3 C-4.03533587 1.93224776 -2.03144641 0.93446535 0 0 Z " fill="#F2CE77" transform="translate(225,90)"/>
<path d="M0 0 C0.66 0.33 1.32 0.66 2 1 C0.90344712 2.31886772 -0.20253423 3.62990057 -1.3125 4.9375 C-1.92738281 5.66839844 -2.54226563 6.39929688 -3.17578125 7.15234375 C-5 9 -5 9 -8 10 C-6.34908222 5.70761377 -3.26245434 3.1206085 0 0 Z " fill="#9BC392" transform="translate(703,97)"/>
<path d="M0 0 C0.66 0 1.32 0 2 0 C0.50902342 3.7952131 -1.75700849 5.61042731 -5 8 C-5.99 7.34 -6.98 6.68 -8 6 C-7.05125 5.38125 -6.1025 4.7625 -5.125 4.125 C-2.05554891 2.18029031 -2.05554891 2.18029031 0 0 Z " fill="#E58056" transform="translate(530,200)"/>
<path d="M0 0 C0.33 0 0.66 0 1 0 C1 4.62 1 9.24 1 14 C-0.98 14.99 -0.98 14.99 -3 16 C-2.5359375 14.824375 -2.5359375 14.824375 -2.0625 13.625 C-0.73664193 9.10148422 -0.35188915 4.68568186 0 0 Z " fill="#F7D79A" transform="translate(166,147)"/>
<path d="M0 0 C0.66 0.33 1.32 0.66 2 1 C-0.64 3.97 -3.28 6.94 -6 10 C-6.66 9.67 -7.32 9.34 -8 9 C-6.85459775 7.68712379 -5.70866567 6.37470979 -4.5625 5.0625 C-3.92441406 4.33160156 -3.28632813 3.60070312 -2.62890625 2.84765625 C-1.77458541 1.87860647 -0.91348825 0.91348825 0 0 Z " fill="#EBB484" transform="translate(471,96)"/>
<path d="M0 0 C0.33 0 0.66 0 1 0 C1 3.63 1 7.26 1 11 C0.01 10.67 -0.98 10.34 -2 10 C-1.34 6.7 -0.68 3.4 0 0 Z " fill="#F3CC97" transform="translate(359,88)"/>
<path d="M0 0 C1.5 1.1875 1.5 1.1875 3 3 C3.1875 5.6875 3.1875 5.6875 3 8 C2.01 8 1.02 8 0 8 C0 5.36 0 2.72 0 0 Z " fill="#C8823D" transform="translate(329,121)"/>
<path d="M0 0 C-0.66 1.65 -1.32 3.3 -2 5 C-3.32 4.34 -4.64 3.68 -6 3 C-3.375 0 -3.375 0 0 0 Z " fill="#7BB588" transform="translate(1009,108)"/>
<path d="M0 0 C0.66 0.33 1.32 0.66 2 1 C-0.31 3.31 -2.62 5.62 -5 8 C-5.66 7.67 -6.32 7.34 -7 7 C-4.66666667 4.66666667 -2.33333333 2.33333333 0 0 Z " fill="#7BB28D" transform="translate(947,92)"/>
<path d="M0 0 C1.69752187 0.25245197 3.38471545 0.57645775 5.0625 0.9375 C5.98160156 1.13214844 6.90070313 1.32679688 7.84765625 1.52734375 C8.91306641 1.76130859 8.91306641 1.76130859 10 2 C10 2.33 10 2.66 10 3 C8.54207116 3.05399736 7.08357288 3.09279177 5.625 3.125 C4.81289063 3.14820313 4.00078125 3.17140625 3.1640625 3.1953125 C1 3 1 3 -1 1 C-0.67 0.67 -0.34 0.34 0 0 Z " fill="#E08557" transform="translate(490,207)"/>
</svg>
