<svg xmlns="http://www.w3.org/2000/svg" preserveAspectRatio="xMidYMid meet" version="1.0" viewBox="0 0 131.25 30" zoomAndPan="magnify"><defs><clipPath id="a"><path d="M3.23 5.672h124.09v17.422H3.23Zm0 0" clip-rule="nonzero"/></clipPath><clipPath id="b"><path d="M12.07 5.672h106.387a8.844 8.844 0 0 1 8.84 8.84 8.86 8.86 0 0 1-2.59 6.254 8.847 8.847 0 0 1-6.25 2.586H12.07a8.85 8.85 0 0 1-6.254-2.586 8.856 8.856 0 0 1-2.586-6.254 8.84 8.84 0 0 1 2.586-6.25 8.853 8.853 0 0 1 6.254-2.59Zm0 0" clip-rule="nonzero"/></clipPath></defs><g clip-path="url(#a)"><g clip-path="url(#b)"><path d="M12.07 5.672h106.387a8.844 8.844 0 0 1 8.84 8.84 8.86 8.86 0 0 1-2.59 6.254 8.847 8.847 0 0 1-6.25 2.586H12.07a8.85 8.85 0 0 1-6.254-2.586 8.856 8.856 0 0 1-2.586-6.254 8.84 8.84 0 0 1 2.586-6.25 8.853 8.853 0 0 1 6.254-2.59Zm0 0" fill="none" stroke="#545454" stroke-linecap="butt" stroke-linejoin="miter" stroke-miterlimit="4" stroke-opacity="1" stroke-width="1.452"/></g></g><path d="M8.075 18.184H6.763v-6.625h1.312Zm2.99 0H9.8v-6.625h1.5l2.656 4.265.125-.015v-4.25h1.266v6.625h-1.344L11.19 13.62l-.125.016Zm8.392-6.625c1.07 0 1.89.28 2.453.843.57.555.86 1.375.86 2.47 0 1.093-.29 1.921-.86 2.484-.563.554-1.383.828-2.453.828h-2.39v-6.625Zm-.078 5.53c.675 0 1.18-.171 1.515-.515.344-.351.516-.922.516-1.703s-.172-1.344-.516-1.687c-.336-.352-.84-.532-1.515-.532h-1v4.438Zm6.085 1.095H24.15v-6.625h1.313Zm7.224 0h-1.375l-.5-1.532h-2.547l-.484 1.532h-1.36l2.297-6.625h1.672Zm-3.203-5.25-.86 2.625h1.829l-.86-2.625Zm5.428 5.25h-1.265v-6.625h1.5l2.656 4.265.125-.015v-4.25h1.266v6.625H37.85l-2.813-4.563-.125.016Zm8.36.093c-.554 0-1.03-.125-1.437-.375-.406-.25-.719-.628-.938-1.14-.218-.508-.328-1.14-.328-1.89 0-.759.13-1.391.39-1.891.27-.508.634-.891 1.095-1.141.468-.25 1.015-.375 1.64-.375.633 0 1.172.121 1.61.36.445.23.765.577.953 1.046l-.953.578h-.125c-.137-.3-.329-.52-.579-.656-.242-.133-.543-.203-.906-.203-.574 0-1.012.184-1.312.547-.305.355-.453.933-.453 1.734 0 .805.14 1.387.421 1.75.282.356.696.531 1.25.531.477 0 .829-.101 1.047-.312.227-.219.344-.54.344-.969v-.281H43.43v-1.063h2.875v3.657h-1.25v-.891l-.094-.016a1.68 1.68 0 0 1-.64.75c-.274.164-.622.25-1.048.25Zm7.304 0c-.606 0-1.141-.117-1.61-.359-.46-.25-.824-.629-1.093-1.14-.262-.508-.391-1.145-.391-1.907 0-.758.129-1.394.39-1.906.27-.508.633-.883 1.094-1.125.469-.25 1.004-.375 1.61-.375.601 0 1.132.125 1.593.375.47.242.832.617 1.094 1.125.258.512.39 1.148.39 1.906 0 .762-.132 1.399-.39 1.906-.262.512-.625.891-1.094 1.141-.46.242-.992.36-1.593.36Zm0-1.14c.562 0 .988-.176 1.28-.531.302-.364.454-.942.454-1.735 0-.789-.152-1.367-.453-1.734-.293-.363-.719-.547-1.281-.547-.563 0-.996.184-1.297.547-.293.367-.438.945-.438 1.734 0 .793.145 1.371.438 1.735.3.355.734.53 1.297.53Zm7.549 1.047h-1.578l-2.235-6.625h1.39l1.61 4.937h.11L59 11.56h1.36Zm7.666-6.625v1.093h-1.906v5.532h-1.312v-5.532h-1.907V11.56Zm2.51 6.718c-.562 0-1.031-.101-1.406-.312-.375-.219-.649-.504-.813-.86l.735-.906h.109c.125.293.297.524.516.688.226.168.488.25.78.25.321 0 .563-.094.72-.281.164-.196.25-.508.25-.938v-4.36h1.312v4.376c0 .804-.183 1.398-.547 1.78-.367.376-.918.563-1.656.563Zm6.63 0c-.605 0-1.14-.117-1.61-.359-.46-.25-.823-.629-1.093-1.14-.262-.508-.39-1.145-.39-1.907 0-.758.128-1.394.39-1.906.27-.508.633-.883 1.094-1.125.468-.25 1.004-.375 1.61-.375.6 0 1.132.125 1.593.375.469.242.832.617 1.094 1.125.257.512.39 1.148.39 1.906 0 .762-.133 1.399-.39 1.906-.262.512-.625.891-1.094 1.141-.461.242-.992.36-1.594.36Zm0-1.14c.563 0 .988-.176 1.281-.531.301-.364.453-.942.453-1.735 0-.789-.152-1.367-.453-1.734-.293-.363-.718-.547-1.28-.547-.563 0-.997.184-1.298.547-.293.367-.437.945-.437 1.734 0 .793.144 1.371.437 1.735.301.355.735.53 1.297.53Zm4.471 1.047v-6.625h2.828c.406 0 .75.07 1.031.203.282.125.493.308.641.547.145.23.219.507.219.828 0 .293-.074.554-.219.781a1.487 1.487 0 0 1-.594.531v.094c.414.117.735.32.953.61.227.28.344.632.344 1.046 0 .637-.195 1.125-.578 1.469-.375.344-.945.516-1.703.516Zm2.563-3.985c.601 0 .906-.273.906-.828 0-.281-.078-.488-.235-.625-.148-.133-.37-.203-.671-.203h-1.25v1.656Zm.234 2.953c.719 0 1.078-.328 1.078-.984 0-.664-.36-1-1.078-1h-1.484v1.984Zm5.763 1.125c-.46 0-.87-.058-1.234-.171a2.96 2.96 0 0 1-.89-.438 2.083 2.083 0 0 1-.548-.61l.72-.874h.109c.207.293.46.527.765.703.313.18.672.265 1.078.265.352 0 .618-.07.797-.218a.795.795 0 0 0 .266-.625.751.751 0 0 0-.094-.391.689.689 0 0 0-.281-.266 1.962 1.962 0 0 0-.531-.203l-.86-.187c-.594-.133-1.039-.36-1.328-.672-.293-.32-.437-.734-.437-1.234 0-.375.093-.704.28-.985a1.82 1.82 0 0 1 .813-.672c.364-.156.79-.234 1.282-.234.507 0 .945.07 1.312.203.363.137.672.34.922.61l-.64.89h-.11a1.762 1.762 0 0 0-.656-.437 2.272 2.272 0 0 0-.828-.141c-.356 0-.625.062-.813.187a.588.588 0 0 0-.281.516c0 .211.062.375.187.5.133.125.364.227.688.297l.875.172c.644.137 1.11.37 1.39.703.29.324.438.746.438 1.266 0 .418-.09.78-.266 1.093-.18.305-.449.54-.812.703-.356.164-.793.25-1.313.25ZM92 18.23a.963.963 0 0 1-.437-.093.808.808 0 0 1-.281-.281.792.792 0 0 1-.094-.391.8.8 0 0 1 .094-.39.735.735 0 0 1 .28-.266c.126-.07.27-.11.438-.11a.85.85 0 0 1 .422.11.64.64 0 0 1 .282.265.813.813 0 0 1 .093.39.745.745 0 0 1-.218.548c-.149.148-.34.219-.579.219Zm3.452-.046H94.14v-6.625h1.312Zm2.99 0h-1.265v-6.625h1.5l2.656 4.265.125-.015v-4.25h1.266v6.625h-1.344l-2.813-4.563-.125.016Zm6.423.046a.963.963 0 0 1-.438-.093.808.808 0 0 1-.28-.281.792.792 0 0 1-.095-.391c0-.145.032-.274.094-.39a.735.735 0 0 1 .281-.266.88.88 0 0 1 .438-.11c.156 0 .297.04.422.11a.64.64 0 0 1 .281.265.813.813 0 0 1 .094.39.745.745 0 0 1-.219.548c-.148.148-.34.219-.578.219Zm3.405-.046h-1.266v-6.625h1.5l2.656 4.265.125-.015v-4.25h1.266v6.625h-1.344l-2.812-4.563-.125.016Zm7.313-2.907v1.813h3.156v1.094h-4.469v-6.625h4.407v1.093h-3.094V14.2h2.703v1.078Zm8.838-3.718v1.093h-1.906v5.532h-1.312v-5.532h-1.907V11.56Zm0 0" fill="#545454" fill-opacity="1"/></svg>