<svg xmlns="http://www.w3.org/2000/svg" xmlns:xlink="http://www.w3.org/1999/xlink" width="186" zoomAndPan="magnify" viewBox="0 0 139.5 42" height="56" preserveAspectRatio="xMidYMid meet" version="1.0"><defs><g/><clipPath id="d7374cd411"><path d="M 2.382812 9.105469 L 136.414062 9.105469 L 136.414062 31.816406 L 2.382812 31.816406 Z M 2.382812 9.105469 " clip-rule="nonzero"/></clipPath><clipPath id="b12e01c32d"><path d="M 13.367188 9.105469 L 125.644531 9.105469 C 128.554688 9.105469 131.351562 10.261719 133.410156 12.324219 C 135.46875 14.382812 136.625 17.175781 136.625 20.089844 L 136.625 20.921875 C 136.625 23.835938 135.46875 26.628906 133.410156 28.691406 C 131.351562 30.75 128.554688 31.90625 125.644531 31.90625 L 13.367188 31.90625 C 10.453125 31.90625 7.660156 30.75 5.601562 28.691406 C 3.539062 26.628906 2.382812 23.835938 2.382812 20.921875 L 2.382812 20.089844 C 2.382812 17.175781 3.539062 14.382812 5.601562 12.324219 C 7.660156 10.261719 10.453125 9.105469 13.367188 9.105469 Z M 13.367188 9.105469 " clip-rule="nonzero"/></clipPath></defs><g fill="#5ce1e6" fill-opacity="1"><g transform="translate(4.62478, 25.671006)"><g><path d="M 4.640625 0.15625 C 3.910156 0.15625 3.265625 0.0664062 2.703125 -0.109375 C 2.140625 -0.296875 1.664062 -0.535156 1.28125 -0.828125 C 0.90625 -1.117188 0.617188 -1.4375 0.421875 -1.78125 L 1.5625 -3.171875 L 1.734375 -3.171875 C 2.054688 -2.703125 2.457031 -2.328125 2.9375 -2.046875 C 3.425781 -1.773438 3.992188 -1.640625 4.640625 -1.640625 C 5.191406 -1.640625 5.609375 -1.753906 5.890625 -1.984375 C 6.171875 -2.222656 6.3125 -2.546875 6.3125 -2.953125 C 6.3125 -3.203125 6.265625 -3.410156 6.171875 -3.578125 C 6.085938 -3.742188 5.9375 -3.882812 5.71875 -4 C 5.507812 -4.125 5.226562 -4.226562 4.875 -4.3125 L 3.53125 -4.625 C 2.59375 -4.832031 1.890625 -5.1875 1.421875 -5.6875 C 0.960938 -6.1875 0.734375 -6.835938 0.734375 -7.640625 C 0.734375 -8.222656 0.878906 -8.738281 1.171875 -9.1875 C 1.472656 -9.644531 1.90625 -9.992188 2.46875 -10.234375 C 3.039062 -10.484375 3.71875 -10.609375 4.5 -10.609375 C 5.300781 -10.609375 5.988281 -10.5 6.5625 -10.28125 C 7.144531 -10.070312 7.632812 -9.75 8.03125 -9.3125 L 7 -7.921875 L 6.828125 -7.921875 C 6.535156 -8.222656 6.195312 -8.453125 5.8125 -8.609375 C 5.425781 -8.765625 4.988281 -8.84375 4.5 -8.84375 C 3.9375 -8.84375 3.503906 -8.742188 3.203125 -8.546875 C 2.910156 -8.347656 2.765625 -8.070312 2.765625 -7.71875 C 2.765625 -7.382812 2.867188 -7.117188 3.078125 -6.921875 C 3.285156 -6.734375 3.644531 -6.582031 4.15625 -6.46875 L 5.53125 -6.1875 C 6.539062 -5.96875 7.273438 -5.601562 7.734375 -5.09375 C 8.191406 -4.582031 8.421875 -3.910156 8.421875 -3.078125 C 8.421875 -2.429688 8.28125 -1.863281 8 -1.375 C 7.71875 -0.894531 7.289062 -0.519531 6.71875 -0.25 C 6.15625 0.0195312 5.460938 0.15625 4.640625 0.15625 Z M 4.640625 0.15625 "/></g></g><g transform="translate(13.610064, 25.671006)"><g><path d="M 8.109375 -6.53125 L 8.109375 -10.46875 L 10.171875 -10.46875 L 10.171875 0 L 8.109375 0 L 8.109375 -4.765625 L 3.421875 -4.765625 L 3.421875 0 L 1.359375 0 L 1.359375 -10.46875 L 3.421875 -10.46875 L 3.421875 -6.53125 Z M 8.109375 -6.53125 "/></g></g><g transform="translate(25.149285, 25.671006)"><g><path d="M 5.703125 0.15625 C 4.742188 0.15625 3.894531 -0.0351562 3.15625 -0.421875 C 2.425781 -0.816406 1.851562 -1.414062 1.4375 -2.21875 C 1.03125 -3.03125 0.828125 -4.035156 0.828125 -5.234375 C 0.828125 -6.429688 1.03125 -7.429688 1.4375 -8.234375 C 1.851562 -9.035156 2.425781 -9.628906 3.15625 -10.015625 C 3.894531 -10.410156 4.742188 -10.609375 5.703125 -10.609375 C 6.660156 -10.609375 7.503906 -10.414062 8.234375 -10.03125 C 8.960938 -9.644531 9.53125 -9.046875 9.9375 -8.234375 C 10.351562 -7.429688 10.5625 -6.429688 10.5625 -5.234375 C 10.5625 -4.035156 10.351562 -3.03125 9.9375 -2.21875 C 9.53125 -1.414062 8.960938 -0.816406 8.234375 -0.421875 C 7.503906 -0.0351562 6.660156 0.15625 5.703125 0.15625 Z M 5.703125 -1.640625 C 6.585938 -1.640625 7.265625 -1.925781 7.734375 -2.5 C 8.203125 -3.070312 8.4375 -3.984375 8.4375 -5.234375 C 8.4375 -6.484375 8.203125 -7.394531 7.734375 -7.96875 C 7.265625 -8.539062 6.585938 -8.828125 5.703125 -8.828125 C 4.804688 -8.828125 4.125 -8.539062 3.65625 -7.96875 C 3.1875 -7.394531 2.953125 -6.484375 2.953125 -5.234375 C 2.953125 -3.984375 3.1875 -3.070312 3.65625 -2.5 C 4.125 -1.925781 4.804688 -1.640625 5.703125 -1.640625 Z M 5.703125 -1.640625 "/></g></g><g transform="translate(36.545428, 25.671006)"><g><path d="M 5.40625 -10.46875 C 6.15625 -10.46875 6.796875 -10.328125 7.328125 -10.046875 C 7.859375 -9.773438 8.257812 -9.390625 8.53125 -8.890625 C 8.800781 -8.398438 8.9375 -7.828125 8.9375 -7.171875 C 8.9375 -6.523438 8.800781 -5.953125 8.53125 -5.453125 C 8.257812 -4.960938 7.859375 -4.582031 7.328125 -4.3125 C 6.796875 -4.039062 6.15625 -3.90625 5.40625 -3.90625 L 3.421875 -3.90625 L 3.421875 0 L 1.359375 0 L 1.359375 -10.46875 Z M 5.125 -5.53125 C 6.28125 -5.53125 6.859375 -6.078125 6.859375 -7.171875 C 6.859375 -8.273438 6.28125 -8.828125 5.125 -8.828125 L 3.421875 -8.828125 L 3.421875 -5.53125 Z M 5.125 -5.53125 "/></g></g><g transform="translate(46.103022, 25.671006)"><g><path d="M 5.40625 -10.46875 C 6.15625 -10.46875 6.796875 -10.328125 7.328125 -10.046875 C 7.859375 -9.773438 8.257812 -9.390625 8.53125 -8.890625 C 8.800781 -8.398438 8.9375 -7.828125 8.9375 -7.171875 C 8.9375 -6.523438 8.800781 -5.953125 8.53125 -5.453125 C 8.257812 -4.960938 7.859375 -4.582031 7.328125 -4.3125 C 6.796875 -4.039062 6.15625 -3.90625 5.40625 -3.90625 L 3.421875 -3.90625 L 3.421875 0 L 1.359375 0 L 1.359375 -10.46875 Z M 5.125 -5.53125 C 6.28125 -5.53125 6.859375 -6.078125 6.859375 -7.171875 C 6.859375 -8.273438 6.28125 -8.828125 5.125 -8.828125 L 3.421875 -8.828125 L 3.421875 -5.53125 Z M 5.125 -5.53125 "/></g></g><g transform="translate(55.660616, 25.671006)"><g><path d="M 3.421875 0 L 1.359375 0 L 1.359375 -10.46875 L 3.421875 -10.46875 Z M 3.421875 0 "/></g></g><g transform="translate(60.453721, 25.671006)"><g><path d="M 3.359375 0 L 1.359375 0 L 1.359375 -10.46875 L 3.734375 -10.46875 L 7.921875 -3.71875 L 8.109375 -3.75 L 8.109375 -10.46875 L 10.109375 -10.46875 L 10.109375 0 L 7.984375 0 L 3.546875 -7.203125 L 3.359375 -7.171875 Z M 3.359375 0 "/></g></g><g transform="translate(71.921403, 25.671006)"><g><path d="M 5.078125 0.15625 C 4.203125 0.15625 3.445312 -0.0390625 2.8125 -0.4375 C 2.175781 -0.84375 1.6875 -1.445312 1.34375 -2.25 C 1 -3.050781 0.828125 -4.046875 0.828125 -5.234375 C 0.828125 -6.421875 1.03125 -7.414062 1.4375 -8.21875 C 1.851562 -9.03125 2.429688 -9.628906 3.171875 -10.015625 C 3.910156 -10.410156 4.765625 -10.609375 5.734375 -10.609375 C 6.742188 -10.609375 7.597656 -10.421875 8.296875 -10.046875 C 9.003906 -9.679688 9.503906 -9.128906 9.796875 -8.390625 L 8.28125 -7.484375 L 8.09375 -7.484375 C 7.882812 -7.953125 7.582031 -8.289062 7.1875 -8.5 C 6.800781 -8.71875 6.316406 -8.828125 5.734375 -8.828125 C 4.835938 -8.828125 4.148438 -8.539062 3.671875 -7.96875 C 3.191406 -7.40625 2.953125 -6.492188 2.953125 -5.234375 C 2.953125 -3.960938 3.175781 -3.039062 3.625 -2.46875 C 4.070312 -1.90625 4.734375 -1.625 5.609375 -1.625 C 6.359375 -1.625 6.910156 -1.789062 7.265625 -2.125 C 7.628906 -2.46875 7.8125 -2.972656 7.8125 -3.640625 L 7.8125 -4.09375 L 5.328125 -4.09375 L 5.328125 -5.78125 L 9.859375 -5.78125 L 9.859375 0 L 7.890625 0 L 7.890625 -1.40625 L 7.734375 -1.421875 C 7.515625 -0.921875 7.1875 -0.53125 6.75 -0.25 C 6.320312 0.0195312 5.765625 0.15625 5.078125 0.15625 Z M 5.078125 0.15625 "/></g></g></g><g clip-path="url(#d7374cd411)"><g clip-path="url(#b12e01c32d)"><path stroke-linecap="butt" transform="matrix(0.732558, 0, 0, 0.732558, 2.383161, 9.106357)" fill="none" stroke-linejoin="miter" d="M 14.994068 -0.00121205 L 168.261548 -0.00121205 C 172.234142 -0.00121205 176.052099 1.577161 178.862242 4.392637 C 181.672386 7.202781 183.250759 11.015405 183.250759 14.993331 L 183.250759 16.12912 C 183.250759 20.107046 181.672386 23.91967 178.862242 26.735146 C 176.052099 29.54529 172.234142 31.123663 168.261548 31.123663 L 14.994068 31.123663 C 11.016142 31.123663 7.203518 29.54529 4.393374 26.735146 C 1.577898 23.91967 -0.000475177 20.107046 -0.000475177 16.12912 L -0.000475177 14.993331 C -0.000475177 11.015405 1.577898 7.202781 4.393374 4.392637 C 7.203518 1.577161 11.016142 -0.00121205 14.994068 -0.00121205 Z M 14.994068 -0.00121205 " stroke="#38b6ff" stroke-width="2" stroke-opacity="1" stroke-miterlimit="4"/></g></g><g fill="#7ed957" fill-opacity="1"><g transform="translate(82.831085, 25.639536)"><g><path d="M 4.640625 0.15625 C 3.910156 0.15625 3.265625 0.0664062 2.703125 -0.109375 C 2.140625 -0.296875 1.664062 -0.535156 1.28125 -0.828125 C 0.90625 -1.117188 0.617188 -1.4375 0.421875 -1.78125 L 1.5625 -3.171875 L 1.734375 -3.171875 C 2.054688 -2.703125 2.457031 -2.328125 2.9375 -2.046875 C 3.425781 -1.773438 3.992188 -1.640625 4.640625 -1.640625 C 5.191406 -1.640625 5.609375 -1.753906 5.890625 -1.984375 C 6.171875 -2.222656 6.3125 -2.546875 6.3125 -2.953125 C 6.3125 -3.203125 6.265625 -3.410156 6.171875 -3.578125 C 6.085938 -3.742188 5.9375 -3.882812 5.71875 -4 C 5.507812 -4.125 5.226562 -4.226562 4.875 -4.3125 L 3.53125 -4.625 C 2.59375 -4.832031 1.890625 -5.1875 1.421875 -5.6875 C 0.960938 -6.1875 0.734375 -6.835938 0.734375 -7.640625 C 0.734375 -8.222656 0.878906 -8.738281 1.171875 -9.1875 C 1.472656 -9.644531 1.90625 -9.992188 2.46875 -10.234375 C 3.039062 -10.484375 3.71875 -10.609375 4.5 -10.609375 C 5.300781 -10.609375 5.988281 -10.5 6.5625 -10.28125 C 7.144531 -10.070312 7.632812 -9.75 8.03125 -9.3125 L 7 -7.921875 L 6.828125 -7.921875 C 6.535156 -8.222656 6.195312 -8.453125 5.8125 -8.609375 C 5.425781 -8.765625 4.988281 -8.84375 4.5 -8.84375 C 3.9375 -8.84375 3.503906 -8.742188 3.203125 -8.546875 C 2.910156 -8.347656 2.765625 -8.070312 2.765625 -7.71875 C 2.765625 -7.382812 2.867188 -7.117188 3.078125 -6.921875 C 3.285156 -6.734375 3.644531 -6.582031 4.15625 -6.46875 L 5.53125 -6.1875 C 6.539062 -5.96875 7.273438 -5.601562 7.734375 -5.09375 C 8.191406 -4.582031 8.421875 -3.910156 8.421875 -3.078125 C 8.421875 -2.429688 8.28125 -1.863281 8 -1.375 C 7.71875 -0.894531 7.289062 -0.519531 6.71875 -0.25 C 6.15625 0.0195312 5.460938 0.15625 4.640625 0.15625 Z M 4.640625 0.15625 "/></g></g><g transform="translate(91.816369, 25.639536)"><g><path d="M 8.3125 2.609375 C 7.394531 2.609375 6.628906 2.382812 6.015625 1.9375 C 5.410156 1.5 5.003906 0.878906 4.796875 0.078125 C 3.992188 -0.0234375 3.296875 -0.289062 2.703125 -0.71875 C 2.109375 -1.144531 1.644531 -1.734375 1.3125 -2.484375 C 0.988281 -3.242188 0.828125 -4.160156 0.828125 -5.234375 C 0.828125 -6.429688 1.03125 -7.429688 1.4375 -8.234375 C 1.851562 -9.035156 2.425781 -9.628906 3.15625 -10.015625 C 3.894531 -10.410156 4.742188 -10.609375 5.703125 -10.609375 C 6.660156 -10.609375 7.503906 -10.414062 8.234375 -10.03125 C 8.960938 -9.644531 9.53125 -9.046875 9.9375 -8.234375 C 10.351562 -7.429688 10.5625 -6.429688 10.5625 -5.234375 C 10.5625 -3.671875 10.226562 -2.46875 9.5625 -1.625 C 8.894531 -0.789062 7.953125 -0.269531 6.734375 -0.0625 L 6.703125 0.078125 C 6.847656 0.328125 7.066406 0.519531 7.359375 0.65625 C 7.660156 0.789062 8.003906 0.859375 8.390625 0.859375 C 8.703125 0.859375 8.988281 0.820312 9.25 0.75 L 9.390625 0.765625 L 9.6875 2.390625 C 9.53125 2.441406 9.320312 2.488281 9.0625 2.53125 C 8.8125 2.582031 8.5625 2.609375 8.3125 2.609375 Z M 5.703125 -1.640625 C 6.585938 -1.640625 7.265625 -1.925781 7.734375 -2.5 C 8.203125 -3.070312 8.4375 -3.984375 8.4375 -5.234375 C 8.4375 -6.484375 8.203125 -7.394531 7.734375 -7.96875 C 7.265625 -8.539062 6.585938 -8.828125 5.703125 -8.828125 C 4.804688 -8.828125 4.125 -8.539062 3.65625 -7.96875 C 3.1875 -7.394531 2.953125 -6.484375 2.953125 -5.234375 C 2.953125 -3.984375 3.1875 -3.070312 3.65625 -2.5 C 4.125 -1.925781 4.804688 -1.640625 5.703125 -1.640625 Z M 5.703125 -1.640625 "/></g></g><g transform="translate(103.212512, 25.639536)"><g><path d="M 5.546875 0.15625 C 4.109375 0.15625 3.039062 -0.1875 2.34375 -0.875 C 1.644531 -1.5625 1.296875 -2.578125 1.296875 -3.921875 L 1.296875 -10.46875 L 3.328125 -10.46875 L 3.328125 -3.9375 C 3.328125 -3.175781 3.507812 -2.601562 3.875 -2.21875 C 4.238281 -1.832031 4.796875 -1.640625 5.546875 -1.640625 C 7.023438 -1.640625 7.765625 -2.40625 7.765625 -3.9375 L 7.765625 -10.46875 L 9.796875 -10.46875 L 9.796875 -3.921875 C 9.796875 -2.578125 9.445312 -1.5625 8.75 -0.875 C 8.050781 -0.1875 6.984375 0.15625 5.546875 0.15625 Z M 5.546875 0.15625 "/></g></g><g transform="translate(114.301038, 25.639536)"><g><path d="M 10.046875 0 L 7.859375 0 L 7.078125 -2.40625 L 3.0625 -2.40625 L 2.28125 0 L 0.15625 0 L 3.765625 -10.46875 L 6.421875 -10.46875 Z M 4.96875 -8.28125 L 3.625 -4.15625 L 6.5 -4.15625 L 5.15625 -8.28125 Z M 4.96875 -8.28125 "/></g></g><g transform="translate(124.495328, 25.639536)"><g><path d="M 5.125 -10.46875 C 6.820312 -10.46875 8.117188 -10.023438 9.015625 -9.140625 C 9.910156 -8.265625 10.359375 -6.960938 10.359375 -5.234375 C 10.359375 -3.503906 9.910156 -2.195312 9.015625 -1.3125 C 8.117188 -0.4375 6.820312 0 5.125 0 L 1.359375 0 L 1.359375 -10.46875 Z M 5 -1.734375 C 6.082031 -1.734375 6.890625 -2.007812 7.421875 -2.5625 C 7.953125 -3.113281 8.21875 -4.003906 8.21875 -5.234375 C 8.21875 -6.460938 7.953125 -7.347656 7.421875 -7.890625 C 6.890625 -8.441406 6.082031 -8.71875 5 -8.71875 L 3.421875 -8.71875 L 3.421875 -1.734375 Z M 5 -1.734375 "/></g></g></g></svg>